<svg xmlns="http://www.w3.org/2000/svg" width="1680" height="1100" viewBox="0 0 1680 1100"><rect width="100%" height="100%" fill="#F4F7FB"/><text x="64" y="70" font-family="Nimbus Sans,Arial,sans-serif" font-size="30" font-weight="700" fill="#14223C">JobProof AI Common Action Icons</text><text x="64" y="108" font-family="Nimbus Sans,Arial,sans-serif" font-size="16" fill="#6B7890">28 reusable actions for canvas, planning, validation, files and navigation</text><rect x="64" y="150" width="210" height="190" rx="20" fill="white"/><rect x="80" y="166" width="178" height="105" rx="15" fill="#F1F6FF"/><svg x="141" y="190" width="56" height="56" viewBox="0 0 24 24" color="#2F6BFF" fill="none" stroke="#2F6BFF" stroke-width="1.8" stroke-linecap="round" stroke-linejoin="round"><path d="M4 4h16v16H4z"/><path d="M12 8v8M8 12h8"/></svg><text x="82" y="301" font-family="Nimbus Sans,Arial,sans-serif" font-size="14" font-weight="700" fill="#223252">01 · New Canvas</text><text x="82" y="324" font-family="Nimbus Sans,Arial,sans-serif" font-size="12" fill="#75839A">action-01</text><rect x="292" y="150" width="210" height="190" rx="20" fill="white"/><rect x="308" y="166" width="178" height="105" rx="15" fill="#F1F6FF"/><svg x="369" y="190" width="56" height="56" viewBox="0 0 24 24" color="#2F6BFF" fill="none" stroke="#2F6BFF" stroke-width="1.8" stroke-linecap="round" stroke-linejoin="round"><rect x="3" y="5" width="18" height="16" rx="3"/><path d="M7 2v6M17 2v6M3 10h18"/><path d="m8 15 2 2 5-5"/></svg><text x="310" y="301" font-family="Nimbus Sans,Arial,sans-serif" font-size="14" font-weight="700" fill="#223252">02 · Learning Plan</text><text x="310" y="324" font-family="Nimbus Sans,Arial,sans-serif" font-size="12" fill="#75839A">action-02</text><rect x="520" y="150" width="210" height="190" rx="20" fill="white"/><rect x="536" y="166" width="178" height="105" rx="15" fill="#F1F6FF"/><svg x="597" y="190" width="56" height="56" viewBox="0 0 24 24" color="#2F6BFF" fill="none" stroke="#2F6BFF" stroke-width="1.8" stroke-linecap="round" stroke-linejoin="round"><path d="M12 3 4 6v6c0 5 3.5 8 8 10 4.5-2 8-5 8-10V6z"/><path d="m8 12 2.5 2.5L16 9"/></svg><text x="538" y="301" font-family="Nimbus Sans,Arial,sans-serif" font-size="14" font-weight="700" fill="#223252">03 · Ability Check</text><text x="538" y="324" font-family="Nimbus Sans,Arial,sans-serif" font-size="12" fill="#75839A">action-03</text><rect x="748" y="150" width="210" height="190" rx="20" fill="white"/><rect x="764" y="166" width="178" height="105" rx="15" fill="#F1F6FF"/><svg x="825" y="190" width="56" height="56" viewBox="0 0 24 24" color="#2F6BFF" fill="none" stroke="#2F6BFF" stroke-width="1.8" stroke-linecap="round" stroke-linejoin="round"><path d="M3 12a9 9 0 1 0 3-6.7L3 8"/><path d="M3 3v5h5M12 7v5l3 2"/></svg><text x="766" y="301" font-family="Nimbus Sans,Arial,sans-serif" font-size="14" font-weight="700" fill="#223252">04 · Version History</text><text x="766" y="324" font-family="Nimbus Sans,Arial,sans-serif" font-size="12" fill="#75839A">action-04</text><rect x="976" y="150" width="210" height="190" rx="20" fill="white"/><rect x="992" y="166" width="178" height="105" rx="15" fill="#F1F6FF"/><svg x="1053" y="190" width="56" height="56" viewBox="0 0 24 24" color="#2F6BFF" fill="none" stroke="#2F6BFF" stroke-width="1.8" stroke-linecap="round" stroke-linejoin="round"><circle cx="12" cy="12" r="9"/><path d="M12 8v8M8 12h8"/></svg><text x="994" y="301" font-family="Nimbus Sans,Arial,sans-serif" font-size="14" font-weight="700" fill="#223252">05 · Add Node</text><text x="994" y="324" font-family="Nimbus Sans,Arial,sans-serif" font-size="12" fill="#75839A">action-05</text><rect x="1204" y="150" width="210" height="190" rx="20" fill="white"/><rect x="1220" y="166" width="178" height="105" rx="15" fill="#F1F6FF"/><svg x="1281" y="190" width="56" height="56" viewBox="0 0 24 24" color="#2F6BFF" fill="none" stroke="#2F6BFF" stroke-width="1.8" stroke-linecap="round" stroke-linejoin="round"><path d="m4 16-1 5 5-1L20 8l-4-4zM14 6l4 4"/><path d="M4 12V4h8"/></svg><text x="1222" y="301" font-family="Nimbus Sans,Arial,sans-serif" font-size="14" font-weight="700" fill="#223252">06 · Edit Node</text><text x="1222" y="324" font-family="Nimbus Sans,Arial,sans-serif" font-size="12" fill="#75839A">action-06</text><rect x="1432" y="150" width="210" height="190" rx="20" fill="white"/><rect x="1448" y="166" width="178" height="105" rx="15" fill="#F1F6FF"/><svg x="1509" y="190" width="56" height="56" viewBox="0 0 24 24" color="#2F6BFF" fill="none" stroke="#2F6BFF" stroke-width="1.8" stroke-linecap="round" stroke-linejoin="round"><rect x="4" y="10" width="16" height="11" rx="3"/><path d="M8 10V7a4 4 0 0 1 8 0v3M12 14v3"/></svg><text x="1450" y="301" font-family="Nimbus Sans,Arial,sans-serif" font-size="14" font-weight="700" fill="#223252">07 · Lock Node</text><text x="1450" y="324" font-family="Nimbus Sans,Arial,sans-serif" font-size="12" fill="#75839A">action-07</text><rect x="64" y="358" width="210" height="190" rx="20" fill="white"/><rect x="80" y="374" width="178" height="105" rx="15" fill="#F1F6FF"/><svg x="141" y="398" width="56" height="56" viewBox="0 0 24 24" color="#2F6BFF" fill="none" stroke="#2F6BFF" stroke-width="1.8" stroke-linecap="round" stroke-linejoin="round"><path d="M20 11a8 8 0 1 0-2 6"/><path d="M20 5v6h-6"/><path d="m12 7 .7 2.3L15 10l-2.3.7L12 13l-.7-2.3L9 10l2.3-.7z"/></svg><text x="82" y="509" font-family="Nimbus Sans,Arial,sans-serif" font-size="14" font-weight="700" fill="#223252">08 · AI Regenerate</text><text x="82" y="532" font-family="Nimbus Sans,Arial,sans-serif" font-size="12" fill="#75839A">action-08</text><rect x="292" y="358" width="210" height="190" rx="20" fill="white"/><rect x="308" y="374" width="178" height="105" rx="15" fill="#F1F6FF"/><svg x="369" y="398" width="56" height="56" viewBox="0 0 24 24" color="#2F6BFF" fill="none" stroke="#2F6BFF" stroke-width="1.8" stroke-linecap="round" stroke-linejoin="round"><path d="M6 3h9l4 4v14H6z"/><path d="M15 3v5h5"/><path d="m9 14 2 2 5-5"/></svg><text x="310" y="509" font-family="Nimbus Sans,Arial,sans-serif" font-size="14" font-weight="700" fill="#223252">09 · Evidence</text><text x="310" y="532" font-family="Nimbus Sans,Arial,sans-serif" font-size="12" fill="#75839A">action-09</text><rect x="520" y="358" width="210" height="190" rx="20" fill="white"/><rect x="536" y="374" width="178" height="105" rx="15" fill="#F1F6FF"/><svg x="597" y="398" width="56" height="56" viewBox="0 0 24 24" color="#2F6BFF" fill="none" stroke="#2F6BFF" stroke-width="1.8" stroke-linecap="round" stroke-linejoin="round"><circle cx="12" cy="12" r="9"/><path d="M12 3v9h9"/><path d="m8 15 2 2 5-5"/></svg><text x="538" y="509" font-family="Nimbus Sans,Arial,sans-serif" font-size="14" font-weight="700" fill="#223252">10 · Progress</text><text x="538" y="532" font-family="Nimbus Sans,Arial,sans-serif" font-size="12" fill="#75839A">action-10</text><rect x="748" y="358" width="210" height="190" rx="20" fill="white"/><rect x="764" y="374" width="178" height="105" rx="15" fill="#F1F6FF"/><svg x="825" y="398" width="56" height="56" viewBox="0 0 24 24" color="#2F6BFF" fill="none" stroke="#2F6BFF" stroke-width="1.8" stroke-linecap="round" stroke-linejoin="round"><path d="M3 5h18l-7 8v6l-4 2v-8z"/></svg><text x="766" y="509" font-family="Nimbus Sans,Arial,sans-serif" font-size="14" font-weight="700" fill="#223252">11 · Filter</text><text x="766" y="532" font-family="Nimbus Sans,Arial,sans-serif" font-size="12" fill="#75839A">action-11</text><rect x="976" y="358" width="210" height="190" rx="20" fill="white"/><rect x="992" y="374" width="178" height="105" rx="15" fill="#F1F6FF"/><svg x="1053" y="398" width="56" height="56" viewBox="0 0 24 24" color="#2F6BFF" fill="none" stroke="#2F6BFF" stroke-width="1.8" stroke-linecap="round" stroke-linejoin="round"><circle cx="10" cy="10" r="7"/><path d="m15 15 6 6"/></svg><text x="994" y="509" font-family="Nimbus Sans,Arial,sans-serif" font-size="14" font-weight="700" fill="#223252">12 · Search</text><text x="994" y="532" font-family="Nimbus Sans,Arial,sans-serif" font-size="12" fill="#75839A">action-12</text><rect x="1204" y="358" width="210" height="190" rx="20" fill="white"/><rect x="1220" y="374" width="178" height="105" rx="15" fill="#F1F6FF"/><svg x="1281" y="398" width="56" height="56" viewBox="0 0 24 24" color="#2F6BFF" fill="none" stroke="#2F6BFF" stroke-width="1.8" stroke-linecap="round" stroke-linejoin="round"><path d="M12 16V3m-5 5 5-5 5 5"/><path d="M4 15v5h16v-5"/></svg><text x="1222" y="509" font-family="Nimbus Sans,Arial,sans-serif" font-size="14" font-weight="700" fill="#223252">13 · Upload</text><text x="1222" y="532" font-family="Nimbus Sans,Arial,sans-serif" font-size="12" fill="#75839A">action-13</text><rect x="1432" y="358" width="210" height="190" rx="20" fill="white"/><rect x="1448" y="374" width="178" height="105" rx="15" fill="#F1F6FF"/><svg x="1509" y="398" width="56" height="56" viewBox="0 0 24 24" color="#2F6BFF" fill="none" stroke="#2F6BFF" stroke-width="1.8" stroke-linecap="round" stroke-linejoin="round"><path d="M12 3v13m-5-5 5 5 5-5"/><path d="M4 20h16"/></svg><text x="1450" y="509" font-family="Nimbus Sans,Arial,sans-serif" font-size="14" font-weight="700" fill="#223252">14 · Import</text><text x="1450" y="532" font-family="Nimbus Sans,Arial,sans-serif" font-size="12" fill="#75839A">action-14</text><rect x="64" y="566" width="210" height="190" rx="20" fill="white"/><rect x="80" y="582" width="178" height="105" rx="15" fill="#F1F6FF"/><svg x="141" y="606" width="56" height="56" viewBox="0 0 24 24" color="#2F6BFF" fill="none" stroke="#2F6BFF" stroke-width="1.8" stroke-linecap="round" stroke-linejoin="round"><path d="M12 16V3m-5 5 5-5 5 5"/><path d="M4 20h16"/></svg><text x="82" y="717" font-family="Nimbus Sans,Arial,sans-serif" font-size="14" font-weight="700" fill="#223252">15 · Export</text><text x="82" y="740" font-family="Nimbus Sans,Arial,sans-serif" font-size="12" fill="#75839A">action-15</text><rect x="292" y="566" width="210" height="190" rx="20" fill="white"/><rect x="308" y="582" width="178" height="105" rx="15" fill="#F1F6FF"/><svg x="369" y="606" width="56" height="56" viewBox="0 0 24 24" color="#2F6BFF" fill="none" stroke="#2F6BFF" stroke-width="1.8" stroke-linecap="round" stroke-linejoin="round"><circle cx="12" cy="12" r="3"/><path d="M19.4 15a1.7 1.7 0 0 0 .3 1.9l.1.1-2.8 2.8-.1-.1a1.7 1.7 0 0 0-1.9-.3 1.7 1.7 0 0 0-1 1.5V21h-4v-.1a1.7 1.7 0 0 0-1-1.5 1.7 1.7 0 0 0-1.9.3l-.1.1L4.2 17l.1-.1a1.7 1.7 0 0 0 .3-1.9A1.7 1.7 0 0 0 3 14H3v-4h.1a1.7 1.7 0 0 0 1.5-1 1.7 1.7 0 0 0-.3-1.9L4.2 7 7 4.2l.1.1A1.7 1.7 0 0 0 9 4.6a1.7 1.7 0 0 0 1-1.5V3h4v.1a1.7 1.7 0 0 0 1 1.5 1.7 1.7 0 0 0 1.9-.3l.1-.1L19.8 7l-.1.1a1.7 1.7 0 0 0-.3 1.9 1.7 1.7 0 0 0 1.5 1h.1v4h-.1a1.7 1.7 0 0 0-1.5 1z"/></svg><text x="310" y="717" font-family="Nimbus Sans,Arial,sans-serif" font-size="14" font-weight="700" fill="#223252">16 · Settings</text><text x="310" y="740" font-family="Nimbus Sans,Arial,sans-serif" font-size="12" fill="#75839A">action-16</text><rect x="520" y="566" width="210" height="190" rx="20" fill="white"/><rect x="536" y="582" width="178" height="105" rx="15" fill="#F1F6FF"/><svg x="597" y="606" width="56" height="56" viewBox="0 0 24 24" color="#2F6BFF" fill="none" stroke="#2F6BFF" stroke-width="1.8" stroke-linecap="round" stroke-linejoin="round"><circle cx="12" cy="8" r="4"/><path d="M4 21a8 8 0 0 1 16 0"/></svg><text x="538" y="717" font-family="Nimbus Sans,Arial,sans-serif" font-size="14" font-weight="700" fill="#223252">17 · Profile</text><text x="538" y="740" font-family="Nimbus Sans,Arial,sans-serif" font-size="12" fill="#75839A">action-17</text><rect x="748" y="566" width="210" height="190" rx="20" fill="white"/><rect x="764" y="582" width="178" height="105" rx="15" fill="#F1F6FF"/><svg x="825" y="606" width="56" height="56" viewBox="0 0 24 24" color="#2F6BFF" fill="none" stroke="#2F6BFF" stroke-width="1.8" stroke-linecap="round" stroke-linejoin="round"><path d="M5 3h14v19l-7-4-7 4z"/></svg><text x="766" y="717" font-family="Nimbus Sans,Arial,sans-serif" font-size="14" font-weight="700" fill="#223252">18 · Bookmark</text><text x="766" y="740" font-family="Nimbus Sans,Arial,sans-serif" font-size="12" fill="#75839A">action-18</text><rect x="976" y="566" width="210" height="190" rx="20" fill="white"/><rect x="992" y="582" width="178" height="105" rx="15" fill="#F1F6FF"/><svg x="1053" y="606" width="56" height="56" viewBox="0 0 24 24" color="#2F6BFF" fill="none" stroke="#2F6BFF" stroke-width="1.8" stroke-linecap="round" stroke-linejoin="round"><circle cx="5" cy="12" r="1" fill="currentColor" stroke="none"/><circle cx="12" cy="12" r="1" fill="currentColor" stroke="none"/><circle cx="19" cy="12" r="1" fill="currentColor" stroke="none"/></svg><text x="994" y="717" font-family="Nimbus Sans,Arial,sans-serif" font-size="14" font-weight="700" fill="#223252">19 · More</text><text x="994" y="740" font-family="Nimbus Sans,Arial,sans-serif" font-size="12" fill="#75839A">action-19</text><rect x="1204" y="566" width="210" height="190" rx="20" fill="white"/><rect x="1220" y="582" width="178" height="105" rx="15" fill="#F1F6FF"/><svg x="1281" y="606" width="56" height="56" viewBox="0 0 24 24" color="#2F6BFF" fill="none" stroke="#2F6BFF" stroke-width="1.8" stroke-linecap="round" stroke-linejoin="round"><path d="m5 5 14 14M19 5 5 19"/></svg><text x="1222" y="717" font-family="Nimbus Sans,Arial,sans-serif" font-size="14" font-weight="700" fill="#223252">20 · Close</text><text x="1222" y="740" font-family="Nimbus Sans,Arial,sans-serif" font-size="12" fill="#75839A">action-20</text><rect x="1432" y="566" width="210" height="190" rx="20" fill="white"/><rect x="1448" y="582" width="178" height="105" rx="15" fill="#F1F6FF"/><svg x="1509" y="606" width="56" height="56" viewBox="0 0 24 24" color="#2F6BFF" fill="none" stroke="#2F6BFF" stroke-width="1.8" stroke-linecap="round" stroke-linejoin="round"><path d="m4 12 5 5L20 6"/></svg><text x="1450" y="717" font-family="Nimbus Sans,Arial,sans-serif" font-size="14" font-weight="700" fill="#223252">21 · Confirm</text><text x="1450" y="740" font-family="Nimbus Sans,Arial,sans-serif" font-size="12" fill="#75839A">action-21</text><rect x="64" y="774" width="210" height="190" rx="20" fill="white"/><rect x="80" y="790" width="178" height="105" rx="15" fill="#F1F6FF"/><svg x="141" y="814" width="56" height="56" viewBox="0 0 24 24" color="#2F6BFF" fill="none" stroke="#2F6BFF" stroke-width="1.8" stroke-linecap="round" stroke-linejoin="round"><path d="m12 3 10 18H2z"/><path d="M12 9v5M12 18h.01"/></svg><text x="82" y="925" font-family="Nimbus Sans,Arial,sans-serif" font-size="14" font-weight="700" fill="#223252">22 · Warning</text><text x="82" y="948" font-family="Nimbus Sans,Arial,sans-serif" font-size="12" fill="#75839A">action-22</text><rect x="292" y="774" width="210" height="190" rx="20" fill="white"/><rect x="308" y="790" width="178" height="105" rx="15" fill="#F1F6FF"/><svg x="369" y="814" width="56" height="56" viewBox="0 0 24 24" color="#2F6BFF" fill="none" stroke="#2F6BFF" stroke-width="1.8" stroke-linecap="round" stroke-linejoin="round"><circle cx="12" cy="12" r="9"/><path d="M12 11v6M12 7h.01"/></svg><text x="310" y="925" font-family="Nimbus Sans,Arial,sans-serif" font-size="14" font-weight="700" fill="#223252">23 · Information</text><text x="310" y="948" font-family="Nimbus Sans,Arial,sans-serif" font-size="12" fill="#75839A">action-23</text><rect x="520" y="774" width="210" height="190" rx="20" fill="white"/><rect x="536" y="790" width="178" height="105" rx="15" fill="#F1F6FF"/><svg x="597" y="814" width="56" height="56" viewBox="0 0 24 24" color="#2F6BFF" fill="none" stroke="#2F6BFF" stroke-width="1.8" stroke-linecap="round" stroke-linejoin="round"><rect x="3" y="5" width="18" height="16" rx="3"/><path d="M7 2v6M17 2v6M3 10h18"/></svg><text x="538" y="925" font-family="Nimbus Sans,Arial,sans-serif" font-size="14" font-weight="700" fill="#223252">24 · Calendar</text><text x="538" y="948" font-family="Nimbus Sans,Arial,sans-serif" font-size="12" fill="#75839A">action-24</text><rect x="748" y="774" width="210" height="190" rx="20" fill="white"/><rect x="764" y="790" width="178" height="105" rx="15" fill="#F1F6FF"/><svg x="825" y="814" width="56" height="56" viewBox="0 0 24 24" color="#2F6BFF" fill="none" stroke="#2F6BFF" stroke-width="1.8" stroke-linecap="round" stroke-linejoin="round"><path d="M12 5v14M5 12h14"/></svg><text x="766" y="925" font-family="Nimbus Sans,Arial,sans-serif" font-size="14" font-weight="700" fill="#223252">25 · Plus</text><text x="766" y="948" font-family="Nimbus Sans,Arial,sans-serif" font-size="12" fill="#75839A">action-25</text><rect x="976" y="774" width="210" height="190" rx="20" fill="white"/><rect x="992" y="790" width="178" height="105" rx="15" fill="#F1F6FF"/><svg x="1053" y="814" width="56" height="56" viewBox="0 0 24 24" color="#2F6BFF" fill="none" stroke="#2F6BFF" stroke-width="1.8" stroke-linecap="round" stroke-linejoin="round"><path d="m6 9 6 6 6-6"/></svg><text x="994" y="925" font-family="Nimbus Sans,Arial,sans-serif" font-size="14" font-weight="700" fill="#223252">26 · Dropdown</text><text x="994" y="948" font-family="Nimbus Sans,Arial,sans-serif" font-size="12" fill="#75839A">action-26</text><rect x="1204" y="774" width="210" height="190" rx="20" fill="white"/><rect x="1220" y="790" width="178" height="105" rx="15" fill="#F1F6FF"/><svg x="1281" y="814" width="56" height="56" viewBox="0 0 24 24" color="#2F6BFF" fill="none" stroke="#2F6BFF" stroke-width="1.8" stroke-linecap="round" stroke-linejoin="round"><path d="m15 18-6-6 6-6"/></svg><text x="1222" y="925" font-family="Nimbus Sans,Arial,sans-serif" font-size="14" font-weight="700" fill="#223252">27 · Back</text><text x="1222" y="948" font-family="Nimbus Sans,Arial,sans-serif" font-size="12" fill="#75839A">action-27</text><rect x="1432" y="774" width="210" height="190" rx="20" fill="white"/><rect x="1448" y="790" width="178" height="105" rx="15" fill="#F1F6FF"/><svg x="1509" y="814" width="56" height="56" viewBox="0 0 24 24" color="#2F6BFF" fill="none" stroke="#2F6BFF" stroke-width="1.8" stroke-linecap="round" stroke-linejoin="round"><path d="M14 4h6v6M20 4l-9 9"/><path d="M18 13v7H4V6h7"/></svg><text x="1450" y="925" font-family="Nimbus Sans,Arial,sans-serif" font-size="14" font-weight="700" fill="#223252">28 · External Link</text><text x="1450" y="948" font-family="Nimbus Sans,Arial,sans-serif" font-size="12" fill="#75839A">action-28</text></svg>